<svg width="17" height="19" viewBox="0 0 17 19" fill="none" xmlns="http://www.w3.org/2000/svg">
<path d="M8.5516 0.0496826C4.29968 0.0496826 0.840088 3.15083 0.840088 6.9626C0.840088 7.95686 1.06711 8.90615 1.51451 9.78434C3.4426 13.5663 7.13929 17.5593 8.2266 18.6929C8.30806 18.7776 8.42683 18.8264 8.55181 18.8264C8.67679 18.8264 8.79555 18.7776 8.87702 18.6929C9.9639 17.5595 13.6606 13.5667 15.5893 9.78434C16.0369 8.90615 16.2637 7.95686 16.2637 6.9626C16.2633 3.15083 12.8037 0.0496826 8.5516 0.0496826ZM8.5516 10.5532C6.34289 10.5532 4.54578 8.94227 4.54578 6.96241C4.54578 4.98235 6.34289 3.37143 8.5516 3.37143C10.7603 3.37143 12.5574 4.98235 12.5574 6.96241C12.5576 8.94227 10.7605 10.5532 8.5516 10.5532Z" fill="#9D9D9D"/>
</svg>
