<svg width="16" height="18" viewBox="0 0 16 18" fill="none" xmlns="http://www.w3.org/2000/svg">
<path d="M15.1683 14.6113L12.6866 12.3308C12.4798 12.1417 12.0927 12.0374 11.8251 12.0979L10.9717 12.2968C10.3139 12.9077 8.98944 13.8835 6.38047 10.5918C3.7717 7.30128 4.86046 6.02862 5.5175 5.41662L5.82657 4.53224C5.92341 4.25428 5.88609 3.82362 5.74462 3.57349L4.03842 0.571169C3.89626 0.320539 3.57106 0.205702 3.31623 0.314007L1.93658 0.899215C-0.541984 3.2088 0.299038 8.37115 3.89558 12.9066C7.49234 17.4433 12.0744 19.1224 14.5537 16.8133L15.2945 15.4222C15.4314 15.1655 15.3744 14.7998 15.1683 14.6113Z" fill="#9D9D9D"/>
</svg>
