<svg width="17" height="22" viewBox="0 0 17 22" fill="none" xmlns="http://www.w3.org/2000/svg">
<path d="M8.56874 0.696289C4.17302 0.696289 0.596436 4.13604 0.596436 8.364C0.596436 9.46682 0.831136 10.5198 1.29367 11.4938C3.28697 15.6888 7.10867 20.1177 8.23275 21.3751C8.31697 21.4691 8.43975 21.5232 8.56896 21.5232C8.69817 21.5232 8.82095 21.4691 8.90517 21.3751C10.0288 20.1179 13.8505 15.6892 15.8445 11.4938C16.3072 10.5198 16.5417 9.46682 16.5417 8.364C16.5413 4.13604 12.9647 0.696289 8.56874 0.696289ZM8.56874 12.3466C6.28533 12.3466 4.42745 10.5598 4.42745 8.36379C4.42745 6.16753 6.28533 4.38073 8.56874 4.38073C10.8521 4.38073 12.71 6.16753 12.71 8.36379C12.7102 10.5598 10.8524 12.3466 8.56874 12.3466Z" fill="#007491"/>
</svg>
