<svg width="23" height="24" viewBox="0 0 23 24" fill="none" xmlns="http://www.w3.org/2000/svg">
<path d="M20.2777 17.8673L17.2466 15.4744C16.9941 15.276 16.5624 15.1672 16.2855 15.2315L15.4033 15.4427C14.7979 16.0867 13.5376 17.1163 10.2053 13.66C6.87343 10.2051 7.83278 8.86389 8.43715 8.21863L8.62423 7.28768C8.68271 6.99509 8.57253 6.54218 8.38016 6.27942L6.06245 3.12547C5.86927 2.86218 5.50206 2.74215 5.24662 2.85667L3.86351 3.47545C1.58379 5.91058 3.32635 11.3386 7.91967 16.1007C12.5134 20.8641 17.6974 22.6195 19.9779 20.1849L20.5451 18.72C20.65 18.4497 20.5293 18.0651 20.2777 17.8673Z" fill="#007491"/>
</svg>
