<svg width="53" height="59" viewBox="0 0 53 59" fill="none" xmlns="http://www.w3.org/2000/svg">
<path d="M20.4235 6.35437C20.4235 5.2498 21.3189 4.35437 22.4235 4.35437H30.1683C31.2728 4.35437 32.1683 5.2498 32.1683 6.35437V37.2509C32.1683 38.3555 31.2728 39.2509 30.1683 39.2509H22.4235C21.3189 39.2509 20.4235 38.3555 20.4235 37.2509V6.35437Z" fill="white" stroke="#8AB9DB" stroke-width="2.5" stroke-linecap="round" stroke-linejoin="round"/>
<path fill-rule="evenodd" clip-rule="evenodd" d="M23.9446 33.8371C23.9446 34.3894 24.4737 34.8371 25.1264 34.8371L27.4901 34.8371C28.1428 34.8371 28.6719 34.3894 28.6719 33.8371C28.6719 33.2848 28.1428 32.8371 27.4901 32.8371L25.1264 32.8371C24.4737 32.8371 23.9446 33.2848 23.9446 33.8371Z" fill="#8AB9DB"/>
<path fill-rule="evenodd" clip-rule="evenodd" d="M23.9446 28.044C23.9446 28.5963 24.4737 29.044 25.1264 29.044L27.4901 29.044C28.1428 29.044 28.6719 28.5963 28.6719 28.044C28.6719 27.4917 28.1428 27.044 27.4901 27.044L25.1264 27.044C24.4737 27.044 23.9446 27.4917 23.9446 28.044Z" fill="#8AB9DB"/>
<path fill-rule="evenodd" clip-rule="evenodd" d="M23.9446 22.2509C23.9446 22.8032 24.4737 23.2509 25.1264 23.2509L27.4901 23.2509C28.1428 23.2509 28.6719 22.8032 28.6719 22.2509C28.6719 21.6987 28.1428 21.2509 27.4901 21.2509L25.1264 21.2509C24.4737 21.2509 23.9446 21.6987 23.9446 22.2509Z" fill="#8AB9DB"/>
<path fill-rule="evenodd" clip-rule="evenodd" d="M23.9446 16.4579C23.9446 17.0102 24.4737 17.4579 25.1264 17.4579L27.4901 17.4579C28.1428 17.4579 28.6719 17.0102 28.6719 16.4579C28.6719 15.9056 28.1428 15.4579 27.4901 15.4579L25.1264 15.4579C24.4737 15.4579 23.9446 15.9056 23.9446 16.4579Z" fill="#8AB9DB"/>
<path fill-rule="evenodd" clip-rule="evenodd" d="M23.9446 10.6647C23.9446 11.217 24.4737 11.6647 25.1264 11.6647L27.4901 11.6647C28.1428 11.6647 28.6719 11.217 28.6719 10.6647C28.6719 10.1124 28.1428 9.66473 27.4901 9.66473L25.1264 9.66473C24.4737 9.66473 23.9446 10.1124 23.9446 10.6647Z" fill="#8AB9DB"/>
<path fill-rule="evenodd" clip-rule="evenodd" d="M0.34082 1.5614C0.34082 1.00912 0.869938 0.561401 1.52264 0.561401H20.4317C21.0844 0.561401 21.6136 1.00912 21.6136 1.5614V39.3796C21.6136 40.0323 21.0844 40.5614 20.4317 40.5614C19.779 40.5614 19.2499 40.0323 19.2499 39.3796V5.04712C19.2499 3.67429 18.137 2.5614 16.7642 2.5614H5.19017C3.81735 2.5614 2.70446 3.67429 2.70446 5.04712V56.3796C2.70446 57.0323 2.17534 57.5614 1.52264 57.5614C0.869939 57.5614 0.34082 57.0323 0.34082 56.3796V1.5614Z" fill="#8AB9DB"/>
<path fill-rule="evenodd" clip-rule="evenodd" d="M52.3408 1.5614C52.3408 1.00912 51.8117 0.561401 51.159 0.561401H32.2499C31.5972 0.561401 31.0681 1.00912 31.0681 1.5614V39.3796C31.0681 40.0323 31.5972 40.5614 32.2499 40.5614C32.9026 40.5614 33.4317 40.0323 33.4317 39.3796V5.04712C33.4317 3.67429 34.5446 2.5614 35.9174 2.5614H47.4915C48.8643 2.5614 49.9772 3.67429 49.9772 5.04712V56.3796C49.9772 57.0323 50.5063 57.5614 51.159 57.5614C51.8117 57.5614 52.3408 57.0323 52.3408 56.3796V1.5614Z" fill="#8AB9DB"/>
<path fill-rule="evenodd" clip-rule="evenodd" d="M19.2498 45.5614C19.2498 45.0091 19.7789 44.5614 20.4316 44.5614H32.2498C32.9025 44.5614 33.4316 45.0091 33.4316 45.5614V57.3796C33.4316 58.0323 32.9025 58.5614 32.2498 58.5614C31.5971 58.5614 31.0679 58.0323 31.0679 57.3796V49.0471C31.0679 47.6743 29.955 46.5614 28.5822 46.5614H24.0991C22.7263 46.5614 21.6134 47.6743 21.6134 49.0471V57.3796C21.6134 58.0323 21.0843 58.5614 20.4316 58.5614C19.7789 58.5614 19.2498 58.0323 19.2498 57.3796V45.5614Z" fill="#8AB9DB"/>
<path fill-rule="evenodd" clip-rule="evenodd" d="M8.61358 10.5612C9.26628 10.5612 9.7954 10.1135 9.7954 9.56122V7.56122C9.7954 7.00893 9.26628 6.56122 8.61358 6.56122C7.96088 6.56122 7.43176 7.00893 7.43176 7.56122V9.56122C7.43176 10.1135 7.96088 10.5612 8.61358 10.5612Z" fill="#8AB9DB"/>
<path fill-rule="evenodd" clip-rule="evenodd" d="M13.3409 10.5612C13.9936 10.5612 14.5227 10.1135 14.5227 9.56122V7.56122C14.5227 7.00893 13.9936 6.56122 13.3409 6.56122C12.6882 6.56122 12.1591 7.00893 12.1591 7.56122V9.56122C12.1591 10.1135 12.6882 10.5612 13.3409 10.5612Z" fill="#8AB9DB"/>
<path fill-rule="evenodd" clip-rule="evenodd" d="M39.3409 10.5612C39.9936 10.5612 40.5227 10.1135 40.5227 9.56122V7.56122C40.5227 7.00893 39.9936 6.56122 39.3409 6.56122C38.6882 6.56122 38.1591 7.00893 38.1591 7.56122V9.56122C38.1591 10.1135 38.6882 10.5612 39.3409 10.5612Z" fill="#8AB9DB"/>
<path fill-rule="evenodd" clip-rule="evenodd" d="M44.0683 10.5612C44.721 10.5612 45.2501 10.1135 45.2501 9.56122V7.56122C45.2501 7.00893 44.721 6.56122 44.0683 6.56122C43.4156 6.56122 42.8865 7.00893 42.8865 7.56122V9.56122C42.8865 10.1135 43.4156 10.5612 44.0683 10.5612Z" fill="#8AB9DB"/>
<path fill-rule="evenodd" clip-rule="evenodd" d="M8.61358 16.5613C9.26628 16.5613 9.7954 16.1136 9.7954 15.5613V13.5613C9.7954 13.0091 9.26628 12.5613 8.61358 12.5613C7.96088 12.5613 7.43176 13.0091 7.43176 13.5613V15.5613C7.43176 16.1136 7.96088 16.5613 8.61358 16.5613Z" fill="#8AB9DB"/>
<path fill-rule="evenodd" clip-rule="evenodd" d="M13.3409 16.5613C13.9936 16.5613 14.5227 16.1136 14.5227 15.5613V13.5613C14.5227 13.0091 13.9936 12.5613 13.3409 12.5613C12.6882 12.5613 12.1591 13.0091 12.1591 13.5613V15.5613C12.1591 16.1136 12.6882 16.5613 13.3409 16.5613Z" fill="#8AB9DB"/>
<path fill-rule="evenodd" clip-rule="evenodd" d="M39.3409 16.5613C39.9936 16.5613 40.5227 16.1136 40.5227 15.5613V13.5613C40.5227 13.0091 39.9936 12.5613 39.3409 12.5613C38.6882 12.5613 38.1591 13.0091 38.1591 13.5613V15.5613C38.1591 16.1136 38.6882 16.5613 39.3409 16.5613Z" fill="#8AB9DB"/>
<path fill-rule="evenodd" clip-rule="evenodd" d="M44.0683 16.5613C44.721 16.5613 45.2501 16.1136 45.2501 15.5613V13.5613C45.2501 13.0091 44.721 12.5613 44.0683 12.5613C43.4156 12.5613 42.8865 13.0091 42.8865 13.5613V15.5613C42.8865 16.1136 43.4156 16.5613 44.0683 16.5613Z" fill="#8AB9DB"/>
<path fill-rule="evenodd" clip-rule="evenodd" d="M8.61358 22.5612C9.26628 22.5612 9.7954 22.1135 9.7954 21.5612V19.5612C9.7954 19.0089 9.26628 18.5612 8.61358 18.5612C7.96088 18.5612 7.43176 19.0089 7.43176 19.5612V21.5612C7.43176 22.1135 7.96088 22.5612 8.61358 22.5612Z" fill="#8AB9DB"/>
<path fill-rule="evenodd" clip-rule="evenodd" d="M13.3409 22.5612C13.9936 22.5612 14.5227 22.1135 14.5227 21.5612V19.5612C14.5227 19.0089 13.9936 18.5612 13.3409 18.5612C12.6882 18.5612 12.1591 19.0089 12.1591 19.5612V21.5612C12.1591 22.1135 12.6882 22.5612 13.3409 22.5612Z" fill="#8AB9DB"/>
<path fill-rule="evenodd" clip-rule="evenodd" d="M39.3409 22.5612C39.9936 22.5612 40.5227 22.1135 40.5227 21.5612V19.5612C40.5227 19.0089 39.9936 18.5612 39.3409 18.5612C38.6882 18.5612 38.1591 19.0089 38.1591 19.5612V21.5612C38.1591 22.1135 38.6882 22.5612 39.3409 22.5612Z" fill="#8AB9DB"/>
<path fill-rule="evenodd" clip-rule="evenodd" d="M44.0683 22.5612C44.721 22.5612 45.2501 22.1135 45.2501 21.5612V19.5612C45.2501 19.0089 44.721 18.5612 44.0683 18.5612C43.4156 18.5612 42.8865 19.0089 42.8865 19.5612V21.5612C42.8865 22.1135 43.4156 22.5612 44.0683 22.5612Z" fill="#8AB9DB"/>
<path fill-rule="evenodd" clip-rule="evenodd" d="M8.61358 28.5613C9.26628 28.5613 9.7954 28.1136 9.7954 27.5613V25.5613C9.7954 25.0091 9.26628 24.5613 8.61358 24.5613C7.96088 24.5613 7.43176 25.0091 7.43176 25.5613V27.5613C7.43176 28.1136 7.96088 28.5613 8.61358 28.5613Z" fill="#8AB9DB"/>
<path fill-rule="evenodd" clip-rule="evenodd" d="M13.3409 28.5613C13.9936 28.5613 14.5227 28.1136 14.5227 27.5613V25.5613C14.5227 25.0091 13.9936 24.5613 13.3409 24.5613C12.6882 24.5613 12.1591 25.0091 12.1591 25.5613V27.5613C12.1591 28.1136 12.6882 28.5613 13.3409 28.5613Z" fill="#8AB9DB"/>
<path fill-rule="evenodd" clip-rule="evenodd" d="M39.3409 28.5613C39.9936 28.5613 40.5227 28.1136 40.5227 27.5613V25.5613C40.5227 25.0091 39.9936 24.5613 39.3409 24.5613C38.6882 24.5613 38.1591 25.0091 38.1591 25.5613V27.5613C38.1591 28.1136 38.6882 28.5613 39.3409 28.5613Z" fill="#8AB9DB"/>
<path fill-rule="evenodd" clip-rule="evenodd" d="M44.0683 28.5613C44.721 28.5613 45.2501 28.1136 45.2501 27.5613V25.5613C45.2501 25.0091 44.721 24.5613 44.0683 24.5613C43.4156 24.5613 42.8865 25.0091 42.8865 25.5613V27.5613C42.8865 28.1136 43.4156 28.5613 44.0683 28.5613Z" fill="#8AB9DB"/>
<path fill-rule="evenodd" clip-rule="evenodd" d="M8.61358 34.5615C9.26628 34.5615 9.7954 34.1138 9.7954 33.5615V31.5615C9.7954 31.0092 9.26628 30.5615 8.61358 30.5615C7.96088 30.5615 7.43176 31.0092 7.43176 31.5615V33.5615C7.43176 34.1138 7.96088 34.5615 8.61358 34.5615Z" fill="#8AB9DB"/>
<path fill-rule="evenodd" clip-rule="evenodd" d="M13.3409 34.5615C13.9936 34.5615 14.5227 34.1138 14.5227 33.5615V31.5615C14.5227 31.0092 13.9936 30.5615 13.3409 30.5615C12.6882 30.5615 12.1591 31.0092 12.1591 31.5615V33.5615C12.1591 34.1138 12.6882 34.5615 13.3409 34.5615Z" fill="#8AB9DB"/>
<path fill-rule="evenodd" clip-rule="evenodd" d="M39.3409 34.5615C39.9936 34.5615 40.5227 34.1138 40.5227 33.5615V31.5615C40.5227 31.0092 39.9936 30.5615 39.3409 30.5615C38.6882 30.5615 38.1591 31.0092 38.1591 31.5615V33.5615C38.1591 34.1138 38.6882 34.5615 39.3409 34.5615Z" fill="#8AB9DB"/>
<path fill-rule="evenodd" clip-rule="evenodd" d="M44.0683 34.5615C44.721 34.5615 45.2501 34.1138 45.2501 33.5615V31.5615C45.2501 31.0092 44.721 30.5615 44.0683 30.5615C43.4156 30.5615 42.8865 31.0092 42.8865 31.5615V33.5615C42.8865 34.1138 43.4156 34.5615 44.0683 34.5615Z" fill="#8AB9DB"/>
<path fill-rule="evenodd" clip-rule="evenodd" d="M8.61358 48.5614C9.26628 48.5614 9.7954 48.1137 9.7954 47.5614V45.5614C9.7954 45.0091 9.26628 44.5614 8.61358 44.5614C7.96088 44.5614 7.43176 45.0091 7.43176 45.5614V47.5614C7.43176 48.1137 7.96088 48.5614 8.61358 48.5614Z" fill="#8AB9DB"/>
<path fill-rule="evenodd" clip-rule="evenodd" d="M13.3409 48.5614C13.9936 48.5614 14.5227 48.1137 14.5227 47.5614V45.5614C14.5227 45.0091 13.9936 44.5614 13.3409 44.5614C12.6882 44.5614 12.1591 45.0091 12.1591 45.5614V47.5614C12.1591 48.1137 12.6882 48.5614 13.3409 48.5614Z" fill="#8AB9DB"/>
<path fill-rule="evenodd" clip-rule="evenodd" d="M39.3409 48.5614C39.9936 48.5614 40.5227 48.1137 40.5227 47.5614V45.5614C40.5227 45.0091 39.9936 44.5614 39.3409 44.5614C38.6882 44.5614 38.1591 45.0091 38.1591 45.5614V47.5614C38.1591 48.1137 38.6882 48.5614 39.3409 48.5614Z" fill="#8AB9DB"/>
<path fill-rule="evenodd" clip-rule="evenodd" d="M44.0683 48.5614C44.721 48.5614 45.2501 48.1137 45.2501 47.5614V45.5614C45.2501 45.0091 44.721 44.5614 44.0683 44.5614C43.4156 44.5614 42.8865 45.0091 42.8865 45.5614V47.5614C42.8865 48.1137 43.4156 48.5614 44.0683 48.5614Z" fill="#8AB9DB"/>
<path d="M51.3408 38.5616H1.34082C0.788536 38.5616 0.34082 39.0094 0.34082 39.5616C0.34082 40.1139 0.788536 40.5616 1.34082 40.5616H51.3408C51.8931 40.5616 52.3408 40.1139 52.3408 39.5616C52.3408 39.0094 51.8931 38.5616 51.3408 38.5616Z" fill="#8AB9DB"/>
<path fill-rule="evenodd" clip-rule="evenodd" d="M51.159 58.5614C51.8117 58.5614 52.3408 58.1137 52.3408 57.5614C52.3408 57.0091 51.8117 56.5614 51.159 56.5614H1.52264C0.869938 56.5614 0.34082 57.0091 0.34082 57.5614C0.34082 58.1137 0.869938 58.5614 1.52264 58.5614H51.159Z" fill="#8AB9DB"/>
</svg>
