<svg width="47" height="55" viewBox="0 0 47 55" fill="none" xmlns="http://www.w3.org/2000/svg">
<path d="M34.762 44.0471L38.7701 50.4482H3.05091L7.55998 44.0471H34.762Z" fill="#EEF8FF" stroke="#8AB9DB" stroke-width="2"/>
<path fill-rule="evenodd" clip-rule="evenodd" d="M15.9668 47.0795L2.62065 24.9568C-1.5763 17.9999 0.0782993 9.00497 6.47617 3.99699C12.2956 -0.558241 20.4713 -0.558241 26.2908 3.99699C32.6887 9.00497 34.3432 17.9999 30.1463 24.9568L16.8001 47.0795C16.6109 47.3931 16.1561 47.3931 15.9668 47.0795ZM16.3836 23.9585C19.4929 23.9585 22.0135 21.6922 22.0135 18.8967C22.0135 16.1012 19.4929 13.835 16.3836 13.835C13.2743 13.835 10.7537 16.1012 10.7537 18.8967C10.7537 21.6922 13.2743 23.9585 16.3836 23.9585Z" fill="#F5F5F5"/>
<mask id="path-3-inside-1" fill="white">
<path fill-rule="evenodd" clip-rule="evenodd" d="M16.696 45.1171L4.49098 24.8269C0.787522 18.6701 2.24961 10.7189 7.90102 6.28224C13.0639 2.22916 20.328 2.22916 25.4909 6.28224C31.1423 10.7189 32.6044 18.6701 28.9009 24.8269L16.696 45.1171ZM16.6962 21.7802C19.5632 21.7802 21.8873 19.6906 21.8873 17.1129C21.8873 14.5353 19.5632 12.4457 16.6962 12.4457C13.8292 12.4457 11.505 14.5353 11.505 17.1129C11.505 19.6906 13.8292 21.7802 16.6962 21.7802Z"/>
</mask>
<path fill-rule="evenodd" clip-rule="evenodd" d="M16.696 45.1171L4.49098 24.8269C0.787522 18.6701 2.24961 10.7189 7.90102 6.28224C13.0639 2.22916 20.328 2.22916 25.4909 6.28224C31.1423 10.7189 32.6044 18.6701 28.9009 24.8269L16.696 45.1171ZM16.6962 21.7802C19.5632 21.7802 21.8873 19.6906 21.8873 17.1129C21.8873 14.5353 19.5632 12.4457 16.6962 12.4457C13.8292 12.4457 11.505 14.5353 11.505 17.1129C11.505 19.6906 13.8292 21.7802 16.6962 21.7802Z" fill="#EEF8FF"/>
<path d="M4.49098 24.8269L2.77714 25.8578L2.77714 25.8578L4.49098 24.8269ZM16.696 45.1171L14.9821 46.148L16.696 48.9971L18.4098 46.148L16.696 45.1171ZM7.90102 6.28224L6.66602 4.7091L6.66602 4.7091L7.90102 6.28224ZM25.4909 6.28224L26.7259 4.7091L26.7259 4.7091L25.4909 6.28224ZM28.9009 24.8269L30.6148 25.8578L30.6148 25.8578L28.9009 24.8269ZM2.77714 25.8578L14.9821 46.148L18.4098 44.0861L6.20481 23.796L2.77714 25.8578ZM6.66602 4.7091C0.221038 9.76871 -1.44636 18.8364 2.77714 25.8578L6.20481 23.796C3.0214 18.5037 4.27818 11.669 9.13601 7.85539L6.66602 4.7091ZM26.7259 4.7091C20.8381 0.0868764 12.5539 0.0868764 6.66602 4.7091L9.13601 7.85539C13.5739 4.37145 19.818 4.37145 24.2559 7.85539L26.7259 4.7091ZM30.6148 25.8578C34.8383 18.8364 33.1709 9.76871 26.7259 4.7091L24.2559 7.85539C29.1137 11.669 30.3705 18.5037 27.1871 23.796L30.6148 25.8578ZM18.4098 46.148L30.6148 25.8578L27.1871 23.796L14.9821 44.0861L18.4098 46.148ZM19.8873 17.1129C19.8873 18.3912 18.664 19.7802 16.6962 19.7802V23.7802C20.4623 23.7802 23.8873 20.99 23.8873 17.1129H19.8873ZM16.6962 14.4457C18.664 14.4457 19.8873 15.8347 19.8873 17.1129H23.8873C23.8873 13.2359 20.4623 10.4457 16.6962 10.4457V14.4457ZM13.505 17.1129C13.505 15.8347 14.7283 14.4457 16.6962 14.4457V10.4457C12.93 10.4457 9.50502 13.2359 9.50502 17.1129H13.505ZM16.6962 19.7802C14.7283 19.7802 13.505 18.3912 13.505 17.1129H9.50502C9.50502 20.99 12.93 23.7802 16.6962 23.7802V19.7802Z" fill="#8AB9DB" mask="url(#path-3-inside-1)"/>
<path d="M26.0028 28.789C27.1222 26.6309 30.2093 26.6309 31.3288 28.789L32.8194 31.6625C33.2834 32.5571 34.1656 33.1589 35.1679 33.2645L38.0489 33.5683C40.6956 33.8473 41.6954 37.1786 39.6398 38.8689L38.0136 40.2062C37.1398 40.9247 36.7445 42.0736 36.9912 43.1776L37.4941 45.428C38.0448 47.8924 35.4902 49.8931 33.2295 48.7679L30.0026 47.1617C29.1606 46.7427 28.1709 46.7427 27.329 47.1617L24.102 48.7679C21.8414 49.8931 19.2868 47.8924 19.8375 45.4279L20.3403 43.1776C20.587 42.0736 20.1917 40.9247 19.318 40.2062L17.6918 38.8689C15.6361 37.1786 16.6359 33.8473 19.2827 33.5683L22.1637 33.2645C23.1659 33.1589 24.0482 32.5571 24.5122 31.6625L26.0028 28.789Z" fill="#F5F5F5"/>
<path d="M28.6362 30.3021L30.8685 34.6533C31.1762 35.2532 31.7655 35.6576 32.436 35.7291L37.533 36.2724L33.916 39.2797C33.3404 39.7583 33.0803 40.5183 33.2418 41.2492L34.2235 45.6911L29.5353 43.3317C28.9697 43.0471 28.3027 43.0471 27.7371 43.3317L23.0489 45.6911L24.0306 41.2492C24.1921 40.5183 23.932 39.7583 23.3564 39.2797L19.7394 36.2724L24.8364 35.7291C25.5068 35.6576 26.0961 35.2532 26.4039 34.6533L28.6362 30.3021Z" fill="#EEF8FF" stroke="#8AB9DB" stroke-width="2"/>
</svg>
