<svg width="16" height="20" viewBox="0 0 16 20" fill="none" xmlns="http://www.w3.org/2000/svg">
<path d="M8 0C4.69604 0 2 2.35084 2 5.23178V8.13832H0.666667C0.579108 8.13828 0.492399 8.15329 0.411497 8.18249C0.330595 8.2117 0.257086 8.25451 0.195172 8.3085C0.133258 8.36249 0.0841539 8.42658 0.050665 8.49713C0.0171762 8.56767 -4.02615e-05 8.64328 7.06994e-08 8.71963V19.1444C-4.02615e-05 19.2208 0.0171762 19.2964 0.050665 19.3669C0.0841539 19.4375 0.133258 19.5016 0.195172 19.5555C0.257086 19.6095 0.330595 19.6524 0.411497 19.6816C0.492399 19.7108 0.579108 19.7258 0.666667 19.7257H15.3333C15.4209 19.7258 15.5076 19.7108 15.5885 19.6816C15.6694 19.6524 15.7429 19.6095 15.8048 19.5555C15.8667 19.5016 15.9158 19.4375 15.9493 19.3669C15.9828 19.2964 16 19.2208 16 19.1444V8.71963C16 8.64328 15.9828 8.56767 15.9493 8.49713C15.9158 8.42658 15.8667 8.36249 15.8048 8.3085C15.7429 8.25451 15.6694 8.2117 15.5885 8.18249C15.5076 8.15329 15.4209 8.13828 15.3333 8.13832H14V5.23178C14 2.35084 11.304 0 8 0ZM8 1.16262C10.5838 1.16262 12.6667 2.97884 12.6667 5.23178V8.13832H3.33333V5.23178C3.33333 2.97884 5.41622 1.16262 8 1.16262ZM1.33333 9.30093H2.53333H2.75556H13.2H13.4222H14.6667V18.5631H1.33333V9.30093ZM7.91111 11.5874C7.74214 11.6067 7.58808 11.6818 7.48061 11.7971C7.37315 11.9124 7.32044 12.0593 7.33333 12.2075V15.6953C7.33333 15.8495 7.40357 15.9974 7.5286 16.1064C7.65362 16.2154 7.82319 16.2766 8 16.2766C8.17681 16.2766 8.34638 16.2154 8.47141 16.1064C8.59643 15.9974 8.66667 15.8495 8.66667 15.6953V12.2075C8.67429 12.121 8.65958 12.034 8.62364 11.9531C8.5877 11.8722 8.53143 11.7993 8.45896 11.7399C8.3865 11.6804 8.29967 11.6358 8.20487 11.6095C8.11007 11.5831 8.00969 11.5755 7.91111 11.5874Z" fill="black"/>
</svg>
