<svg width="125" height="14" viewBox="0 0 125 14" fill="none" xmlns="http://www.w3.org/2000/svg">
<path d="M5.56281 7.04306H3.33081V9.22706H2.57481V7.04306H0.342808V6.33506H2.57481V4.13906H3.33081V6.33506H5.56281V7.04306ZM9.65078 6.08306C10.5308 6.13106 11.1988 6.37106 11.6548 6.80306C12.1188 7.22706 12.3508 7.78306 12.3508 8.47106C12.3508 8.95106 12.2348 9.37906 12.0028 9.75506C11.7708 10.1231 11.4268 10.4151 10.9708 10.6311C10.5148 10.8471 9.95878 10.9551 9.30278 10.9551C8.69478 10.9551 8.11878 10.8591 7.57478 10.6671C7.03878 10.4671 6.60678 10.2031 6.27878 9.87506L6.69878 9.19106C6.97878 9.47906 7.35078 9.71506 7.81478 9.89906C8.27878 10.0751 8.77478 10.1631 9.30278 10.1631C9.99078 10.1631 10.5228 10.0151 10.8988 9.71906C11.2748 9.41506 11.4628 8.99906 11.4628 8.47106C11.4628 7.95106 11.2748 7.54306 10.8988 7.24706C10.5228 6.95106 9.95478 6.80306 9.19478 6.80306H8.59478V6.16706L10.9228 3.25106H6.62678V2.48306H12.0268V3.09506L9.65078 6.08306ZM19.3439 2.48306V3.09506L15.8279 10.8831H14.8919L18.3479 3.25106H14.0279V4.82306H13.1759V2.48306H19.3439ZM22.4676 5.92706C23.6836 5.92706 24.5676 6.14706 25.1196 6.58706C25.6796 7.01906 25.9596 7.62706 25.9596 8.41106C25.9596 8.89906 25.8436 9.33506 25.6116 9.71906C25.3876 10.1031 25.0476 10.4071 24.5916 10.6311C24.1356 10.8471 23.5756 10.9551 22.9116 10.9551C22.3116 10.9551 21.7396 10.8591 21.1956 10.6671C20.6596 10.4671 20.2276 10.2031 19.8996 9.87506L20.3196 9.19106C20.5996 9.47906 20.9676 9.71506 21.4236 9.89906C21.8796 10.0751 22.3716 10.1631 22.8996 10.1631C23.5956 10.1631 24.1316 10.0071 24.5076 9.69506C24.8916 9.38306 25.0836 8.96706 25.0836 8.44706C25.0836 7.87106 24.8676 7.43506 24.4356 7.13906C24.0116 6.84306 23.2916 6.69506 22.2756 6.69506H20.4876L20.9196 2.48306H25.5156V3.25106H21.6756L21.3876 5.92706H22.4676ZM32.2131 13.2111C31.7651 12.4751 31.4211 11.6311 31.1811 10.6791C30.9411 9.71906 30.8211 8.69106 30.8211 7.59506C30.8211 6.49906 30.9411 5.47106 31.1811 4.51106C31.4211 3.54306 31.7651 2.69906 32.2131 1.97906H33.0291C32.5571 2.78706 32.2091 3.65506 31.9851 4.58306C31.7691 5.51106 31.6611 6.51506 31.6611 7.59506C31.6611 8.67506 31.7691 9.67906 31.9851 10.6071C32.2091 11.5351 32.5571 12.4031 33.0291 13.2111H32.2131ZM36.5915 2.48306V10.8831H35.7275V3.25106H33.7475V2.48306H36.5915ZM44.5275 2.48306V3.09506L41.0115 10.8831H40.0755L43.5315 3.25106H39.2115V4.82306H38.3595V2.48306H44.5275ZM45.5219 13.2111C45.9939 12.4031 46.3419 11.5391 46.5659 10.6191C46.7899 9.69106 46.9019 8.68306 46.9019 7.59506C46.9019 6.50706 46.7899 5.50306 46.5659 4.58306C46.3419 3.65506 45.9939 2.78706 45.5219 1.97906H46.3379C46.7859 2.69906 47.1299 3.54306 47.3699 4.51106C47.6179 5.47106 47.7419 6.49906 47.7419 7.59506C47.7419 8.69106 47.6219 9.71906 47.3819 10.6791C47.1419 11.6391 46.7939 12.4831 46.3379 13.2111H45.5219Z" fill="#000912"/>
<path d="M61.1819 9.23306V10.8831H53.4419V9.57806L57.6119 5.61806C58.0819 5.16806 58.3969 4.77806 58.5569 4.44806C58.7269 4.10806 58.8119 3.77306 58.8119 3.44306C58.8119 2.95306 58.6469 2.57806 58.3169 2.31806C57.9869 2.05806 57.5019 1.92806 56.8619 1.92806C55.7919 1.92806 54.9719 2.29306 54.4019 3.02306L53.0369 1.97306C53.4469 1.42306 53.9969 0.998056 54.6869 0.698056C55.3869 0.388056 56.1669 0.233056 57.0269 0.233056C58.1669 0.233056 59.0769 0.503056 59.7569 1.04306C60.4369 1.58306 60.7769 2.31806 60.7769 3.24806C60.7769 3.81806 60.6569 4.35306 60.4169 4.85306C60.1769 5.35306 59.7169 5.92306 59.0369 6.56306L56.2319 9.23306H61.1819ZM66.6434 11.0331C65.8034 11.0331 65.0534 10.8231 64.3934 10.4031C63.7334 9.97306 63.2134 9.35306 62.8334 8.54306C62.4534 7.72306 62.2634 6.75306 62.2634 5.63306C62.2634 4.51306 62.4534 3.54806 62.8334 2.73806C63.2134 1.91806 63.7334 1.29806 64.3934 0.878056C65.0534 0.448056 65.8034 0.233056 66.6434 0.233056C67.4834 0.233056 68.2334 0.448056 68.8934 0.878056C69.5634 1.29806 70.0884 1.91806 70.4684 2.73806C70.8484 3.54806 71.0384 4.51306 71.0384 5.63306C71.0384 6.75306 70.8484 7.72306 70.4684 8.54306C70.0884 9.35306 69.5634 9.97306 68.8934 10.4031C68.2334 10.8231 67.4834 11.0331 66.6434 11.0331ZM66.6434 9.33806C67.3934 9.33806 67.9834 9.02806 68.4134 8.40806C68.8534 7.78806 69.0734 6.86306 69.0734 5.63306C69.0734 4.40306 68.8534 3.47806 68.4134 2.85806C67.9834 2.23806 67.3934 1.92806 66.6434 1.92806C65.9034 1.92806 65.3134 2.23806 64.8734 2.85806C64.4434 3.47806 64.2284 4.40306 64.2284 5.63306C64.2284 6.86306 64.4434 7.78806 64.8734 8.40806C65.3134 9.02806 65.9034 9.33806 66.6434 9.33806ZM79.8879 9.23306V10.8831H72.1479V9.57806L76.3179 5.61806C76.7879 5.16806 77.1029 4.77806 77.2629 4.44806C77.4329 4.10806 77.5179 3.77306 77.5179 3.44306C77.5179 2.95306 77.3529 2.57806 77.0229 2.31806C76.6929 2.05806 76.2079 1.92806 75.5679 1.92806C74.4979 1.92806 73.6779 2.29306 73.1079 3.02306L71.7429 1.97306C72.1529 1.42306 72.7029 0.998056 73.3929 0.698056C74.0929 0.388056 74.8729 0.233056 75.7329 0.233056C76.8729 0.233056 77.7829 0.503056 78.4629 1.04306C79.1429 1.58306 79.4829 2.31806 79.4829 3.24806C79.4829 3.81806 79.3629 4.35306 79.1229 4.85306C78.8829 5.35306 78.4229 5.92306 77.7429 6.56306L74.9379 9.23306H79.8879ZM88.6989 0.233056C90.1389 0.233056 91.2539 0.683056 92.0439 1.58306C92.8439 2.48306 93.2439 3.77306 93.2439 5.45306C93.2439 6.63306 93.0289 7.64306 92.5989 8.48306C92.1689 9.31306 91.5639 9.94806 90.7839 10.3881C90.0139 10.8181 89.1189 11.0331 88.0989 11.0331C87.5589 11.0331 87.0489 10.9781 86.5689 10.8681C86.0989 10.7481 85.6889 10.5781 85.3389 10.3581L86.0589 8.88806C86.5789 9.22806 87.2439 9.39806 88.0539 9.39806C89.0639 9.39806 89.8539 9.08806 90.4239 8.46806C90.9939 7.84806 91.2789 6.95306 91.2789 5.78306V5.76806C90.9689 6.12806 90.5739 6.40306 90.0939 6.59306C89.6139 6.77306 89.0739 6.86306 88.4739 6.86306C87.7839 6.86306 87.1639 6.73306 86.6139 6.47306C86.0639 6.20306 85.6339 5.82306 85.3239 5.33306C85.0139 4.84306 84.8589 4.27806 84.8589 3.63806C84.8589 2.95806 85.0289 2.36306 85.3689 1.85306C85.7089 1.33306 86.1689 0.933056 86.7489 0.653056C87.3289 0.373056 87.9789 0.233056 88.6989 0.233056ZM88.8489 5.33306C89.4789 5.33306 89.9889 5.16306 90.3789 4.82306C90.7789 4.48306 90.9789 4.05306 90.9789 3.53306C90.9789 3.02306 90.7839 2.60306 90.3939 2.27306C90.0139 1.93306 89.4839 1.76306 88.8039 1.76306C88.1939 1.76306 87.6989 1.92806 87.3189 2.25806C86.9389 2.57806 86.7489 3.00806 86.7489 3.54806C86.7489 4.09806 86.9389 4.53306 87.3189 4.85306C87.6989 5.17306 88.2089 5.33306 88.8489 5.33306ZM97.8482 4.44806C99.3282 4.44806 100.423 4.73806 101.133 5.31806C101.843 5.88806 102.198 6.66806 102.198 7.65806C102.198 8.28806 102.043 8.85806 101.733 9.36806C101.423 9.87806 100.958 10.2831 100.338 10.5831C99.7182 10.8831 98.9532 11.0331 98.0432 11.0331C97.2932 11.0331 96.5682 10.9281 95.8682 10.7181C95.1682 10.4981 94.5782 10.1981 94.0982 9.81806L94.9232 8.30306C95.3132 8.62306 95.7782 8.87806 96.3182 9.06806C96.8682 9.24806 97.4332 9.33806 98.0132 9.33806C98.7032 9.33806 99.2432 9.19806 99.6332 8.91806C100.033 8.62806 100.233 8.23306 100.233 7.73306C100.233 7.19306 100.018 6.78806 99.5882 6.51806C99.1682 6.23806 98.4432 6.09806 97.4132 6.09806H94.8782L95.4182 0.383056H101.583V2.01806H97.0682L96.8432 4.44806H97.8482ZM114.278 5.36306C114.828 5.61306 115.248 5.95306 115.538 6.38306C115.838 6.80306 115.988 7.29806 115.988 7.86806C115.988 8.50806 115.808 9.06806 115.448 9.54806C115.098 10.0281 114.598 10.3981 113.948 10.6581C113.298 10.9081 112.543 11.0331 111.683 11.0331C110.823 11.0331 110.068 10.9081 109.418 10.6581C108.778 10.3981 108.283 10.0281 107.933 9.54806C107.583 9.06806 107.408 8.50806 107.408 7.86806C107.408 7.29806 107.553 6.80306 107.843 6.38306C108.133 5.95306 108.548 5.61306 109.088 5.36306C108.668 5.13306 108.343 4.83306 108.113 4.46306C107.893 4.08306 107.783 3.64806 107.783 3.15806C107.783 2.56806 107.943 2.05306 108.263 1.61306C108.593 1.17306 109.053 0.833056 109.643 0.593056C110.233 0.353056 110.913 0.233056 111.683 0.233056C112.463 0.233056 113.148 0.353056 113.738 0.593056C114.328 0.833056 114.788 1.17306 115.118 1.61306C115.448 2.05306 115.613 2.56806 115.613 3.15806C115.613 3.64806 115.498 4.07806 115.268 4.44806C115.038 4.81806 114.708 5.12306 114.278 5.36306ZM111.683 1.76306C111.073 1.76306 110.588 1.89306 110.228 2.15306C109.878 2.41306 109.703 2.77806 109.703 3.24806C109.703 3.69806 109.878 4.05806 110.228 4.32806C110.588 4.58806 111.073 4.71806 111.683 4.71806C112.303 4.71806 112.793 4.58806 113.153 4.32806C113.513 4.05806 113.693 3.69806 113.693 3.24806C113.693 2.77806 113.508 2.41306 113.138 2.15306C112.778 1.89306 112.293 1.76306 111.683 1.76306ZM111.683 9.50306C112.403 9.50306 112.973 9.35306 113.393 9.05306C113.813 8.75306 114.023 8.33806 114.023 7.80806C114.023 7.28806 113.813 6.87806 113.393 6.57806C112.973 6.27806 112.403 6.12806 111.683 6.12806C110.963 6.12806 110.398 6.27806 109.988 6.57806C109.578 6.87806 109.373 7.28806 109.373 7.80806C109.373 8.33806 109.578 8.75306 109.988 9.05306C110.398 9.35306 110.963 9.50306 111.683 9.50306ZM120.539 4.44806C122.019 4.44806 123.114 4.73806 123.824 5.31806C124.534 5.88806 124.889 6.66806 124.889 7.65806C124.889 8.28806 124.734 8.85806 124.424 9.36806C124.114 9.87806 123.649 10.2831 123.029 10.5831C122.409 10.8831 121.644 11.0331 120.734 11.0331C119.984 11.0331 119.259 10.9281 118.559 10.7181C117.859 10.4981 117.269 10.1981 116.789 9.81806L117.614 8.30306C118.004 8.62306 118.469 8.87806 119.009 9.06806C119.559 9.24806 120.124 9.33806 120.704 9.33806C121.394 9.33806 121.934 9.19806 122.324 8.91806C122.724 8.62806 122.924 8.23306 122.924 7.73306C122.924 7.19306 122.709 6.78806 122.279 6.51806C121.859 6.23806 121.134 6.09806 120.104 6.09806H117.569L118.109 0.383056H124.274V2.01806H119.759L119.534 4.44806H120.539Z" fill="#007491"/>
</svg>
