<svg width="52" height="51" viewBox="0 0 52 51" fill="none" xmlns="http://www.w3.org/2000/svg">
<line x1="1.67712" y1="1.53833" x2="50.6771" y2="1.53833" stroke="#8AB9DB" stroke-width="2" stroke-linecap="round" stroke-linejoin="round"/>
<line x1="14.0901" y1="11.5386" x2="14.0901" y2="1.53855" stroke="#8AB9DB" stroke-width="2" stroke-linecap="round" stroke-linejoin="round"/>
<line x1="36.2642" y1="11.5386" x2="36.2642" y2="1.53855" stroke="#8AB9DB" stroke-width="2" stroke-linecap="round" stroke-linejoin="round"/>
<rect x="1.67712" y="11.5386" width="49" height="38.0001" fill="#EEF8FF" stroke="#8AB9DB" stroke-width="2"/>
<path d="M22.5042 35.1501V42.5388H16.6542V19.8548H26.2823C29.2987 19.8548 31.5686 20.4794 33.0921 21.7287C34.6155 22.9779 35.3772 24.74 35.3772 27.015C35.3772 29.3712 34.5495 31.3162 32.894 32.8498C31.2386 34.3833 28.9889 35.1501 26.1452 35.1501H22.5042ZM22.5042 24.09V30.8845H24.18C26.2925 30.8845 27.6788 30.5697 28.3389 29.94C28.9991 29.3103 29.3292 28.381 29.3292 27.1521C29.3292 26.4005 29.1007 25.781 28.6436 25.2935C28.1866 24.7958 27.6432 24.4708 27.0136 24.3185C26.394 24.1662 25.2261 24.09 23.5096 24.09H22.5042Z" fill="#EEF8FF"/>
<path d="M22.5042 35.1501V34.2835C22.0255 34.2835 21.6375 34.6715 21.6375 35.1501H22.5042ZM22.5042 42.5388V43.4055C22.9828 43.4055 23.3708 43.0175 23.3708 42.5388H22.5042ZM16.6542 42.5388H15.7875C15.7875 43.0175 16.1755 43.4055 16.6542 43.4055V42.5388ZM16.6542 19.8548V18.9882C16.1755 18.9882 15.7875 19.3762 15.7875 19.8548H16.6542ZM22.5042 24.09V23.2233C22.0255 23.2233 21.6375 23.6113 21.6375 24.09H22.5042ZM22.5042 30.8845H21.6375C21.6375 31.3632 22.0255 31.7512 22.5042 31.7512V30.8845ZM28.6436 25.2935L28.0053 25.8798L28.0114 25.8863L28.6436 25.2935ZM27.0136 24.3185L26.8066 25.1601L26.8098 25.1609L27.0136 24.3185ZM21.6375 35.1501V42.5388H23.3708V35.1501H21.6375ZM22.5042 41.6722H16.6542V43.4055H22.5042V41.6722ZM17.5208 42.5388V19.8548H15.7875V42.5388H17.5208ZM16.6542 20.7215H26.2823V18.9882H16.6542V20.7215ZM26.2823 20.7215C29.1998 20.7215 31.2376 21.3288 32.5425 22.3988L33.6416 21.0585C31.8997 19.6301 29.3977 18.9882 26.2823 18.9882V20.7215ZM32.5425 22.3988C33.8328 23.4569 34.5106 24.9546 34.5106 27.015H36.2439C36.2439 24.5254 35.3982 22.4989 33.6416 21.0585L32.5425 22.3988ZM34.5106 27.015C34.5106 29.1419 33.7748 30.8524 32.305 32.214L33.483 33.4855C35.3241 31.7799 36.2439 29.6006 36.2439 27.015H34.5106ZM32.305 32.214C30.8485 33.5633 28.8297 34.2835 26.1452 34.2835V36.0168C29.1482 36.0168 31.6286 35.2034 33.483 33.4855L32.305 32.214ZM26.1452 34.2835H22.5042V36.0168H26.1452V34.2835ZM21.6375 24.09V30.8845H23.3708V24.09H21.6375ZM22.5042 31.7512H24.18V30.0179H22.5042V31.7512ZM24.18 31.7512C25.2728 31.7512 26.2175 31.6704 26.996 31.4935C27.7639 31.3191 28.4473 31.0343 28.9371 30.5671L27.7408 29.3129C27.5704 29.4754 27.2306 29.6628 26.6121 29.8032C26.0044 29.9413 25.1996 30.0179 24.18 30.0179V31.7512ZM28.9371 30.5671C29.822 29.7231 30.1958 28.5327 30.1958 27.1521H28.4625C28.4625 28.2293 28.1762 28.8975 27.7408 29.3129L28.9371 30.5671ZM30.1958 27.1521C30.1958 26.21 29.9027 25.3693 29.2759 24.7008L28.0114 25.8863C28.2987 26.1927 28.4625 26.591 28.4625 27.1521H30.1958ZM29.282 24.7073C28.714 24.0888 28.0215 23.6707 27.2173 23.4761L26.8098 25.1609C27.265 25.271 27.6592 25.5029 28.0053 25.8797L29.282 24.7073ZM27.2205 23.4769C26.485 23.296 25.2165 23.2233 23.5096 23.2233V24.9567C25.2356 24.9567 26.3031 25.0363 26.8066 25.1601L27.2205 23.4769ZM23.5096 23.2233H22.5042V24.9567H23.5096V23.2233Z" fill="#8AB9DB"/>
</svg>
