<svg width="24" height="24" viewBox="0 0 24 24" fill="none" xmlns="http://www.w3.org/2000/svg">
<ellipse cx="11.9554" cy="12.3866" rx="11.7285" ry="11.5036" fill="#007491"/>
<path d="M7.74721 8.48443C7.70887 8.53194 7.65774 8.59134 7.6194 8.63885C7.24875 8.9477 6.942 9.6248 7.12094 10.4682C7.86224 14.0913 11.147 16.8472 15.0963 17.1679C15.1858 17.1798 15.2625 17.1798 15.352 17.1798C15.7993 17.1798 16.2338 17.0729 16.5789 16.8828C16.7451 16.7997 16.8857 16.6809 17.0135 16.5502L17.3586 16.2057C18.0232 15.5286 17.9593 14.4714 17.2308 13.8537L16.6556 13.3785C16.3233 13.1053 15.9015 12.9509 15.4542 12.9509C14.9557 12.9509 14.4701 13.1528 14.125 13.4973L13.7799 13.8418C13.6521 13.9725 13.537 14.1269 13.4604 14.2932C12.1183 13.7705 11.0064 12.8321 10.3162 11.6205C10.559 11.5254 10.7891 11.3829 10.968 11.1928L11.3131 10.8483C11.6327 10.5157 11.7988 10.0881 11.7732 9.64856C11.7477 9.20904 11.5432 8.79328 11.1853 8.4963L10.6102 8.02115C10.2906 7.74793 9.85609 7.59351 9.42153 7.59351C8.91029 7.59351 8.43739 7.79545 8.0923 8.13994L7.74721 8.48443Z" fill="white"/>
</svg>
