<svg width="52" height="51" viewBox="0 0 52 51" fill="none" xmlns="http://www.w3.org/2000/svg">
<path d="M0.791135 36.1433C0.791135 36.0386 0.811352 35.9391 0.841674 35.8447V23.138C0.841674 22.6021 1.26619 22.1684 1.78925 22.1684C2.31231 22.1684 2.73682 22.6021 2.73682 23.138V35.1744H15.0559L20.5531 25.5362L9.68317 19.4909C6.37171 17.6538 4.79811 14.0422 6.17588 11.4378L10.4943 3.31742C11.0527 2.26246 12.0073 1.50551 13.2536 1.12864C15.0161 0.595344 17.1115 0.895929 18.9934 1.94895L48.1326 17.8703C48.4194 18.0274 48.6815 18.3467 48.7049 18.6783C48.7283 19.0099 48.6657 19.264 48.4592 19.637L47.0555 22.381L51.2551 24.4535C51.4819 24.5653 51.6556 24.7644 51.7384 25.0074C51.8211 25.2505 51.806 25.5168 51.6967 25.7482L48.6506 32.1995C48.487 32.546 48.149 32.7477 47.7965 32.7477C47.6588 32.7477 47.5185 32.7167 47.3865 32.652L43.0668 30.5253C43.0182 30.5014 42.9746 30.4716 42.9323 30.4413L42.3524 31.5744C41.7946 32.6275 40.8407 33.3825 39.5943 33.7574C39.0232 33.93 38.4174 34.014 37.7945 34.014C36.4945 34.014 35.123 33.6443 33.8476 32.9293L22.2189 26.4619L16.4179 36.6314C16.2473 36.9294 15.9359 37.1123 15.5992 37.1123H2.73619V49.9005C2.73619 50.4357 2.31168 50.8701 1.78862 50.8701C1.26556 50.8701 0.841043 50.4357 0.841043 49.9005V36.442C0.811984 36.3476 0.791135 36.2487 0.791135 36.1433ZM43.8881 28.778L47.3549 30.4852L49.5773 25.7793L46.1755 24.1005L43.7996 28.7457C43.8293 28.756 43.8596 28.7638 43.8881 28.778ZM34.756 31.2273C36.1855 32.0276 37.7939 32.2777 39.0592 31.897C39.5842 31.7393 40.2917 31.3947 40.6789 30.6643L46.516 19.2019L18.0919 3.65486C16.6611 2.85588 15.0521 2.60701 13.7893 2.98904C13.2644 3.14742 12.5556 3.4939 12.1589 4.24245L7.84109 12.3628C6.97627 13.997 8.23275 16.4805 10.5865 17.7863L34.756 31.2273Z" fill="#8AB9DB"/>
<path d="M43.8881 28.778L47.3549 30.4852L49.5773 25.7793L46.1755 24.1005L43.7996 28.7457C43.8293 28.756 43.8596 28.7638 43.8881 28.778ZM34.756 31.2273C36.1855 32.0276 37.7939 32.2777 39.0592 31.897C39.5842 31.7393 40.2917 31.3947 40.6789 30.6643L46.516 19.2019L18.0919 3.65486C16.6611 2.85588 15.0521 2.60701 13.7893 2.98904C13.2644 3.14742 12.5556 3.4939 12.1589 4.24245L7.84109 12.3628C6.97627 13.997 8.23275 16.4805 10.5865 17.7863L34.756 31.2273Z" fill="#EEF8FF"/>
<line x1="1" y1="-1" x2="7.93625" y2="-1" transform="matrix(0.860971 0.508653 -0.491396 0.870936 28.3318 25.2512)" stroke="#8AB9DB" stroke-width="2" stroke-linecap="round" stroke-linejoin="round"/>
</svg>
