<svg width="52" height="480" viewBox="0 0 52 480" fill="none" xmlns="http://www.w3.org/2000/svg">
<path d="M0.473232 19.9952C0.473232 16.1219 0.986566 12.3652 2.01323 8.72522C3.08657 5.13189 4.46323 2.23855 6.14323 0.0452204L14.6832 3.89522C13.1432 5.99522 11.9066 8.49189 10.9732 11.3852C10.0399 14.2786 9.57323 17.1719 9.57323 20.0652C9.57323 23.2852 10.0399 25.6652 10.9732 27.2052C11.9532 28.7452 13.2366 29.5152 14.8232 29.5152C15.9899 29.5152 16.9466 29.0486 17.6932 28.1152C18.4866 27.2286 19.1166 26.0619 19.5832 24.6152C20.0499 23.2152 20.5632 21.3019 21.1232 18.8752C22.0099 15.1419 22.8966 12.0852 23.7832 9.70522C24.6699 7.32522 26.0932 5.27189 28.0532 3.54522C30.0132 1.86522 32.6266 1.02522 35.8932 1.02522C38.7399 1.02522 41.3066 1.79522 43.5932 3.33522C45.9266 4.87522 47.7699 7.18522 49.1232 10.2652C50.4766 13.3919 51.1532 17.1952 51.1532 21.6752C51.1532 24.8019 50.7799 27.8586 50.0332 30.8452C49.2866 33.8319 48.2132 36.4452 46.8132 38.6852L38.2032 35.1852C40.7699 30.6586 42.0532 26.1319 42.0532 21.6052C42.0532 18.4319 41.5399 16.0752 40.5132 14.5352C39.4866 13.0419 38.1332 12.2952 36.4532 12.2952C34.7732 12.2952 33.5132 13.1586 32.6732 14.8852C31.8799 16.6586 31.0866 19.3419 30.2932 22.9352C29.4066 26.6686 28.5199 29.7252 27.6332 32.1052C26.7466 34.4852 25.3466 36.5152 23.4332 38.1952C21.5199 39.9219 18.9299 40.7852 15.6632 40.7852C12.8632 40.7852 10.2966 39.9919 7.96323 38.4052C5.67657 36.8652 3.85657 34.5319 2.50323 31.4052C1.1499 28.2786 0.473232 24.4752 0.473232 19.9952ZM20.5632 66.3839L13.7032 59.8039L1.31323 59.8039V48.5339L50.3132 48.5339V59.8039L27.4232 59.8039L50.3132 81.5039V94.1039L28.4732 73.8039L1.31323 95.2939V82.0639L20.5632 66.3839ZM18.6732 120.316L1.31323 120.316L1.31323 108.976L18.8132 108.976L50.3132 90.0056V102.046L28.5432 115.136L50.3132 128.226L50.3132 139.356L18.6732 120.316ZM41.0732 174.075V158.395L50.3132 158.395L50.3132 201.095L41.0732 201.095L41.0732 185.415L1.31323 185.415V174.075L41.0732 174.075ZM0.473232 230.242C0.473232 225.156 1.5699 220.559 3.76323 216.452C5.95657 212.392 8.96657 209.196 12.7932 206.862C16.6666 204.576 21.0066 203.432 25.8132 203.432C30.6199 203.432 34.9366 204.576 38.7632 206.862C42.6366 209.196 45.6699 212.392 47.8632 216.452C50.0566 220.559 51.1532 225.156 51.1532 230.242C51.1532 235.329 50.0566 239.902 47.8632 243.962C45.6699 248.022 42.6366 251.219 38.7632 253.552C34.9366 255.886 30.6199 257.052 25.8132 257.052C21.0066 257.052 16.6666 255.886 12.7932 253.552C8.96657 251.219 5.95657 248.022 3.76323 243.962C1.5699 239.902 0.473232 235.329 0.473232 230.242ZM10.1332 230.242C10.1332 233.136 10.7866 235.749 12.0932 238.082C13.4466 240.416 15.3132 242.236 17.6932 243.542C20.0732 244.896 22.7799 245.572 25.8132 245.572C28.8466 245.572 31.5532 244.896 33.9332 243.542C36.3132 242.236 38.1566 240.416 39.4632 238.082C40.8166 235.749 41.4932 233.136 41.4932 230.242C41.4932 227.349 40.8166 224.736 39.4632 222.402C38.1566 220.069 36.3132 218.226 33.9332 216.872C31.5532 215.566 28.8466 214.912 25.8132 214.912C22.7799 214.912 20.0732 215.566 17.6932 216.872C15.3132 218.226 13.4466 220.069 12.0932 222.402C10.7866 224.736 10.1332 227.349 10.1332 230.242ZM50.3132 337.994L1.31323 321.964V309.784L34.4932 299.004L1.31323 287.874V275.764L50.3132 259.664V271.424L15.8732 282.484L50.3132 294.034L50.3132 304.534L15.5932 315.734L50.3132 327.144V337.994ZM10.4132 382.265L1.31323 382.265L1.31323 344.325L50.3132 344.325L50.3132 381.355L41.2132 381.355L41.2132 355.595L30.5732 355.595V378.345L21.7532 378.345V355.595L10.4132 355.595V382.265ZM1.31323 422.508L14.9632 413.058V412.498V402.628L1.31323 402.628V391.288L50.3132 391.288V412.498C50.3132 416.838 49.5899 420.594 48.1432 423.768C46.6966 426.988 44.6432 429.461 41.9832 431.188C39.3232 432.914 36.1732 433.778 32.5332 433.778C28.8932 433.778 25.7432 432.891 23.0832 431.118C20.4699 429.391 18.4632 426.918 17.0632 423.698L1.31323 434.688V422.508ZM32.5332 422.298C35.2866 422.298 37.3866 421.411 38.8332 419.638C40.3266 417.864 41.0732 415.274 41.0732 411.868V402.628L23.9932 402.628V411.868C23.9932 415.274 24.7399 417.864 26.2332 419.638C27.7266 421.411 29.8266 422.298 32.5332 422.298ZM0.473232 458.862C0.473232 454.989 0.986566 451.232 2.01323 447.592C3.08657 443.999 4.46323 441.106 6.14323 438.912L14.6832 442.762C13.1432 444.862 11.9066 447.359 10.9732 450.252C10.0399 453.146 9.57323 456.039 9.57323 458.932C9.57323 462.152 10.0399 464.532 10.9732 466.072C11.9532 467.612 13.2366 468.382 14.8232 468.382C15.9899 468.382 16.9466 467.916 17.6932 466.982C18.4866 466.096 19.1166 464.929 19.5832 463.482C20.0499 462.082 20.5632 460.169 21.1232 457.742C22.0099 454.009 22.8966 450.952 23.7832 448.572C24.6699 446.192 26.0932 444.139 28.0532 442.412C30.0132 440.732 32.6266 439.892 35.8932 439.892C38.7399 439.892 41.3066 440.662 43.5932 442.202C45.9266 443.742 47.7699 446.052 49.1232 449.132C50.4766 452.259 51.1532 456.062 51.1532 460.542C51.1532 463.669 50.7799 466.726 50.0332 469.712C49.2866 472.699 48.2132 475.312 46.8132 477.552L38.2032 474.052C40.7699 469.526 42.0532 464.999 42.0532 460.472C42.0532 457.299 41.5399 454.942 40.5132 453.402C39.4866 451.909 38.1332 451.162 36.4532 451.162C34.7732 451.162 33.5132 452.026 32.6732 453.752C31.8799 455.526 31.0866 458.209 30.2932 461.802C29.4066 465.536 28.5199 468.592 27.6332 470.972C26.7466 473.352 25.3466 475.382 23.4332 477.062C21.5199 478.789 18.9299 479.652 15.6632 479.652C12.8632 479.652 10.2966 478.859 7.96323 477.272C5.67657 475.732 3.85657 473.399 2.50323 470.272C1.1499 467.146 0.473232 463.342 0.473232 458.862Z" fill="#F4F4F4"/>
</svg>
