<svg width="52" height="51" viewBox="0 0 52 51" fill="none" xmlns="http://www.w3.org/2000/svg">
<mask id="path-1-inside-1" fill="white">
<path fill-rule="evenodd" clip-rule="evenodd" d="M32.7219 18.9259L18.1988 32.958C15.7643 31.1106 14.1963 28.2137 14.1963 24.9569C14.1963 19.3775 18.7982 14.8545 24.475 14.8545C27.8517 14.8545 30.8481 16.4548 32.7219 18.9259Z"/>
</mask>
<path fill-rule="evenodd" clip-rule="evenodd" d="M32.7219 18.9259L18.1988 32.958C15.7643 31.1106 14.1963 28.2137 14.1963 24.9569C14.1963 19.3775 18.7982 14.8545 24.475 14.8545C27.8517 14.8545 30.8481 16.4548 32.7219 18.9259Z" fill="#EEF8FF"/>
<path d="M32.7219 18.9259L34.1116 20.3642L35.3877 19.1313L34.3156 17.7175L32.7219 18.9259ZM18.1988 32.958L16.9898 34.5512L18.3555 35.5876L19.5885 34.3963L18.1988 32.958ZM31.3322 17.4876L16.8091 31.5197L19.5885 34.3963L34.1116 20.3642L31.3322 17.4876ZM19.4078 31.3648C17.4435 29.8742 16.1963 27.5537 16.1963 24.9569H12.1963C12.1963 28.8737 14.085 32.3469 16.9898 34.5512L19.4078 31.3648ZM16.1963 24.9569C16.1963 20.5146 19.87 16.8545 24.475 16.8545V12.8545C17.7264 12.8545 12.1963 18.2405 12.1963 24.9569H16.1963ZM24.475 16.8545C27.2076 16.8545 29.6214 18.1471 31.1283 20.1343L34.3156 17.7175C32.0749 14.7625 28.4959 12.8545 24.475 12.8545V16.8545Z" fill="#8AB9DB" mask="url(#path-1-inside-1)"/>
<line x1="23.989" y1="1.87012" x2="23.989" y2="10.7164" stroke="#8AB9DB" stroke-width="2" stroke-linecap="round" stroke-linejoin="round"/>
<line x1="1" y1="-1" x2="9.94132" y2="-1" transform="matrix(-0.713197 0.700964 -0.713197 -0.700964 41.344 6.91992)" stroke="#8AB9DB" stroke-width="2" stroke-linecap="round" stroke-linejoin="round"/>
<line x1="1" y1="-1" x2="9.94132" y2="-1" transform="matrix(0.713197 0.700964 0.713197 -0.700964 7.16162 7.78418)" stroke="#8AB9DB" stroke-width="2" stroke-linecap="round" stroke-linejoin="round"/>
<line x1="1" y1="-1" x2="10.0356" y2="-1" transform="matrix(1 -8.26805e-08 -9.24371e-08 -1 0.126953 24.2051)" stroke="#8AB9DB" stroke-width="2" stroke-linecap="round" stroke-linejoin="round"/>
<line x1="1" y1="-1" x2="9.94132" y2="-1" transform="matrix(0.713197 -0.700964 0.713197 0.700964 8.04126 43.1089)" stroke="#8AB9DB" stroke-width="2" stroke-linecap="round" stroke-linejoin="round"/>
<mask id="path-8-inside-2" fill="white">
<path fill-rule="evenodd" clip-rule="evenodd" d="M51.127 29.4191C47.0659 31.1234 44.2197 35.0844 44.2197 39.6988C44.2197 44.3131 47.0659 48.2741 51.127 49.9784C49.7576 50.5531 48.2501 50.8712 46.6669 50.8712C40.3889 50.8712 35.2996 45.8691 35.2996 39.6988C35.2996 33.5284 40.3889 28.5264 46.6669 28.5264C48.2501 28.5264 49.7576 28.8444 51.127 29.4191Z"/>
</mask>
<path fill-rule="evenodd" clip-rule="evenodd" d="M51.127 29.4191C47.0659 31.1234 44.2197 35.0844 44.2197 39.6988C44.2197 44.3131 47.0659 48.2741 51.127 49.9784C49.7576 50.5531 48.2501 50.8712 46.6669 50.8712C40.3889 50.8712 35.2996 45.8691 35.2996 39.6988C35.2996 33.5284 40.3889 28.5264 46.6669 28.5264C48.2501 28.5264 49.7576 28.8444 51.127 29.4191Z" fill="#EEF8FF"/>
<path d="M51.127 29.4191L51.901 31.2633L56.2955 29.4191L51.901 27.5749L51.127 29.4191ZM51.127 49.9784L51.901 51.8226L56.2955 49.9784L51.901 48.1342L51.127 49.9784ZM46.2197 39.6988C46.2197 35.9337 48.5415 32.6731 51.901 31.2633L50.3531 27.5749C45.5904 29.5737 42.2197 34.2351 42.2197 39.6988H46.2197ZM51.901 48.1342C48.5415 46.7244 46.2197 43.4639 46.2197 39.6988H42.2197C42.2197 45.1624 45.5904 49.8239 50.3531 51.8226L51.901 48.1342ZM50.3531 48.1342C49.2249 48.6077 47.9802 48.8712 46.6669 48.8712V52.8712C48.5199 52.8712 50.2903 52.4985 51.901 51.8226L50.3531 48.1342ZM46.6669 48.8712C41.4607 48.8712 37.2996 44.7321 37.2996 39.6988H33.2996C33.2996 47.0062 39.3171 52.8712 46.6669 52.8712V48.8712ZM37.2996 39.6988C37.2996 34.6655 41.4607 30.5264 46.6669 30.5264V26.5264C39.3171 26.5264 33.2996 32.3914 33.2996 39.6988H37.2996ZM46.6669 30.5264C47.9802 30.5264 49.2249 30.7899 50.3531 31.2633L51.901 27.5749C50.2903 26.899 48.5199 26.5264 46.6669 26.5264V30.5264Z" fill="#8AB9DB" mask="url(#path-8-inside-2)"/>
<line x1="1" y1="-1" x2="48.3162" y2="-1" transform="matrix(0.713197 -0.700964 0.713197 0.700964 12.9866 49.5859)" stroke="#8AB9DB" stroke-width="2" stroke-linecap="round" stroke-linejoin="round"/>
</svg>
